<?xml version="1.0" standalone="no"?>
<!DOCTYPE svg PUBLIC "-//W3C//DTD SVG 20010904//EN"
 "http://www.w3.org/TR/2001/REC-SVG-20010904/DTD/svg10.dtd">
<svg version="1.0" xmlns="http://www.w3.org/2000/svg"
 width="90.000000pt" height="90.000000pt" viewBox="0 0 90.000000 90.000000"
 preserveAspectRatio="xMidYMid meet">
<metadata>
Created by potrace 1.14, written by Peter Selinger 2001-2017
</metadata>
<g transform="translate(0.000000,90.000000) scale(0.100000,-0.100000)"
fill="#000000" stroke="none">
<path d="M370 829 c-77 -35 -109 -77 -115 -155 -3 -28 -14 -57 -30 -78 -31
-41 -33 -73 -3 -78 22 -3 34 -31 54 -123 9 -38 11 -40 48 -41 35 0 43 -5 64
-38 30 -48 38 -41 16 13 -13 33 -14 44 -4 56 16 19 2 19 -45 -1 -42 -17 -51
-13 -64 34 -9 30 -5 37 20 34 4 -1 17 10 29 23 22 24 16 37 -7 14 -15 -15 -47
-18 -55 -5 -4 6 -8 21 -8 33 0 16 -7 23 -26 25 l-26 3 29 40 c16 22 35 65 41
96 19 85 66 125 158 132 121 10 223 -64 223 -163 1 -38 -34 -121 -72 -173 -25
-34 -33 -77 -15 -77 6 0 6 -6 -2 -15 -10 -12 -9 -15 5 -15 11 0 15 -5 12 -15
-7 -17 12 -32 22 -17 3 6 5 34 5 63 -1 43 5 66 37 126 56 106 51 171 -17 252
-59 70 -181 92 -274 50z"/>
<path d="M495 753 c-11 -3 -35 -9 -53 -15 -32 -10 -33 -12 -31 -55 3 -41 0
-47 -25 -60 -29 -15 -30 -30 -4 -47 30 -18 48 10 44 66 -4 45 -2 50 20 58 65
25 69 24 72 -21 2 -33 0 -40 -12 -36 -17 7 -46 -17 -46 -38 0 -17 41 -27 57
-13 14 11 19 154 6 161 -5 2 -17 2 -28 0z"/>
<path d="M635 275 c-35 -29 -55 -32 -55 -9 0 24 -24 11 -28 -15 -2 -14 -17
-28 -38 -38 -39 -19 -43 -32 -13 -40 16 -4 19 -11 14 -27 -25 -75 5 -101 32
-27 13 37 23 51 37 51 30 0 85 -48 94 -82 4 -17 14 -34 20 -36 9 -3 11 4 6 25
-9 36 -40 74 -83 102 l-33 23 51 34 c28 19 51 41 51 49 0 22 -21 18 -55 -10z"/>
<path d="M30 240 c0 -20 -7 -60 -16 -89 -15 -50 -12 -91 6 -91 5 0 14 19 20
43 22 85 21 83 36 49 17 -42 48 -42 73 -2 22 37 31 30 31 -24 0 -45 12 -72 28
-62 6 4 7 20 2 43 -5 21 -10 64 -11 96 -3 72 -22 93 -39 43 -14 -43 -48 -88
-61 -81 -5 4 -9 19 -9 35 0 43 -19 79 -41 77 -15 -1 -19 -9 -19 -37z"/>
<path d="M225 158 c12 -74 44 -104 83 -79 21 13 43 96 29 110 -9 9 -15 0 -27
-36 -8 -26 -19 -48 -25 -48 -5 0 -16 21 -24 48 -19 62 -46 66 -36 5z"/>
<path d="M377 193 c-28 -7 -16 -38 15 -38 l26 1 -29 -34 c-24 -27 -28 -37 -18
-48 15 -18 31 -18 77 3 l37 17 -40 5 -40 6 34 32 c41 39 36 64 -11 62 -18 -1
-41 -3 -51 -6z"/>
<path d="M745 175 c-17 -16 -25 -35 -25 -58 0 -44 15 -58 49 -46 17 6 37 6 52
1 26 -10 69 1 69 18 0 5 -15 10 -33 10 -32 0 -33 1 -29 37 3 27 0 40 -14 50
-26 19 -42 16 -69 -12z m58 -11 c12 -12 -23 -64 -44 -64 -17 0 -18 3 -8 23 23
43 38 55 52 41z"/>
</g>
</svg>
